Coordinates
version=1
nRows=29
nColumns=22
inDegrees=yes

Units are S.I. units (second, meters, Newtons, ...)
If the header above contains a line with 'inDegrees', this indicates whether rotational values are in degrees (yes) or radians (no).

endheader
time	pelvis_tilt	pelvis_list	pelvis_rotation	pelvis_tx	pelvis_ty	pelvis_tz	hip_flexion_r	hip_adduction_r	hip_rotation_r	knee_angle_r	ankle_angle_r	subtalar_angle_r	hip_flexion_l	hip_adduction_l	hip_rotation_l	knee_angle_l	ankle_angle_l	subtalar_angle_l	lumbar_extension	lumbar_bending	lumbar_rotation
      4.36000000	     -0.82585635	     -4.39601970	     88.02810849	      0.25760746	      0.86520141	     -0.38712136	     27.07101916	     -6.72593858	      1.29519135	    -23.05854477	      4.59319734	      4.69077966	     -8.29561452	     -3.50513840	     17.14690151	    -21.80975617	     14.93953926	     10.87027558	     -1.75434151	     -1.45388940	      6.44538545
      4.37000000	     -1.03082358	     -4.39545611	     88.59572051	      0.26058127	      0.86639027	     -0.39313418	     26.70472142	     -6.90966251	      0.84968813	    -23.41990246	      5.28654325	      4.19699169	     -7.57204828	     -3.43405037	     17.26421306	    -23.49437306	     13.79080883	     11.88491037	     -1.72515689	     -1.45630621	      6.62027032
      4.38000000	     -1.26298786	     -4.39255686	     89.18197911	      0.26338925	      0.86759471	     -0.39894147	     26.26769271	     -7.14670820	      0.37217294	    -23.64374616	      5.94372481	      3.84848743	     -6.70896585	     -3.30818582	     17.33280111	    -25.36501431	     12.56584448	     12.93371307	     -1.71532278	     -1.48606210	      6.77354690
      4.39000000	     -1.46374918	     -4.37435834	     89.73763319	      0.26615853	      0.86879379	     -0.40460284	     25.78918965	     -7.35523381	     -0.16622333	    -23.80782187	      6.58563149	      3.55861113	     -5.75278093	     -3.20795156	     17.24043006	    -27.37460448	     11.25405579	     14.24267766	     -1.73044749	     -1.48482658	      7.00956725
      4.40000000	     -1.65051748	     -4.33562215	     90.30225630	      0.26877068	      0.86998390	     -0.41001741	     25.25814246	     -7.56434423	     -0.71582639	    -23.89668701	      7.17555752	      3.36252082	     -4.67088497	     -3.10611191	     17.05778280	    -29.57076776	      9.95168723	     15.65810039	     -1.79101006	     -1.46534515	      7.23643544
      4.41000000	     -1.79605254	     -4.27767640	     90.85909529	      0.27128773	      0.87113397	     -0.41520005	     24.70139383	     -7.73409283	     -1.28460093	    -23.95199449	      7.72107174	      3.22329290	     -3.47726753	     -3.04667202	     16.75156552	    -31.92284480	      8.69136925	     17.23327918	     -1.89128792	     -1.40223479	      7.49036782
      4.42000000	     -1.89220758	     -4.20532307	     91.40538894	      0.27372548	      0.87221432	     -0.42013678	     24.13695166	     -7.84950223	     -1.85827449	    -23.99053474	      8.22185346	      3.11732394	     -2.17569761	     -3.04741374	     16.32479991	    -34.40247793	      7.53575940	     18.92743831	     -2.02537041	     -1.28761216	      7.76196931
      4.43000000	     -1.93561547	     -4.12821049	     91.93898375	      0.27609939	      0.87319205	     -0.42482544	     23.58848323	     -7.90365313	     -2.43721578	    -24.03037462	      8.67705021	      3.02340796	     -0.76726562	     -3.12133295	     15.78409986	    -36.97913839	      6.54650038	     20.61173980	     -2.17900164	     -1.11995056	      8.05656361
      4.44000000	     -1.93363408	     -4.04772863	     92.45721702	      0.27844835	      0.87406692	     -0.42927005	     23.05803686	     -7.89596763	     -2.99932368	    -24.06870817	      9.09630907	      2.91586234	      0.72793358	     -3.27077255	     15.14719923	    -39.59988176	      5.75315996	     22.15676825	     -2.34985017	     -0.91397820	      8.36253302
      4.45000000	     -1.89479350	     -3.97013360	     92.95264099	      0.28080092	      0.87483573	     -0.43347834	     22.55801231	     -7.83052785	     -3.53762427	    -24.10870111	      9.47961526	      2.78041409	      2.29503086	     -3.49245649	     14.42529130	    -42.21780925	      5.18807339	     23.35866166	     -2.52833660	     -0.68237794	      8.68198972
      4.46000000	     -1.83067105	     -3.89587730	     93.41690229	      0.28318348	      0.87551844	     -0.43747347	     22.08893876	     -7.71475600	     -4.04115050	    -24.14851321	      9.83106243	      2.61380720	      3.90839649	     -3.77892327	     13.62657909	    -44.77835675	      4.85726913	     24.05151187	     -2.71195944	     -0.44064883	      9.01388131
      4.47000000	     -1.73869473	     -3.80335573	     93.84896701	      0.28562657	      0.87617411	     -0.44129149	     21.61028634	     -7.53834664	     -4.49037861	    -24.15893195	     10.15453446	      2.47469799	      5.51782279	     -4.13823449	     12.77236236	    -47.22777512	      4.75763995	     24.14772121	     -2.92216380	     -0.18788711	      9.34841281
      4.48000000	     -1.68985102	     -3.76487748	     94.20980125	      0.28815709	      0.87670125	     -0.44493016	     21.24964526	     -7.37848201	     -4.87067284	    -24.21676851	     10.47137627	      2.17561260	      7.17457882	     -4.49167080	     11.82450447	    -49.52794560	      4.83163347	     23.63284070	     -3.07680901	     -0.01275961	      9.72888818
      4.49000000	     -1.63736840	     -3.70867687	     94.52044447	      0.29075424	      0.87724881	     -0.44844967	     20.87435225	     -7.18233373	     -5.17968837	    -24.23696218	     10.76532268	      1.90255527	      8.78111013	     -4.89298698	     10.82142162	    -51.64043105	      5.07588654	     22.43980360	     -3.25224638	      0.14774853	     10.11397801
      4.50000000	     -1.60131337	     -3.65630277	     94.76294615	      0.29341698	      0.87780737	     -0.45187430	     20.51585986	     -6.97322646	     -5.41341176	    -24.23280611	     11.03547253	      1.63612741	     10.33438280	     -5.31963970	      9.75000710	    -53.53171105	      5.44671912	     20.75785321	     -3.42156950	      0.27306095	     10.52476130
      4.51000000	     -1.58885578	     -3.60171897	     94.92886015	      0.29615454	      0.87839634	     -0.45520513	     20.16623662	     -6.75471361	     -5.54634079	    -24.20210361	     11.28745854	      1.36706320	     11.81152181	     -5.76074497	      8.61491004	    -55.18623820	      5.91367442	     18.69857261	     -3.59298846	      0.35472539	     10.95807808
      4.52000000	     -1.58393707	     -3.56335914	     95.02245367	      0.29893677	      0.87900637	     -0.45848997	     19.83183516	     -6.52394574	     -5.63998792	    -24.12655931	     11.49632158	      1.10979203	     13.22175036	     -6.23162152	      7.41667876	    -56.59365767	      6.41173511	     16.48112523	     -3.73342426	      0.41300259	     11.43346911
      4.53000000	     -1.59582116	     -3.51918560	     95.03878009	      0.30174676	      0.87967095	     -0.46169763	     19.48959325	     -6.28625655	     -5.65065358	    -24.00649032	     11.67909045	      0.86095586	     14.52696390	     -6.71496105	      6.16424554	    -57.74216891	      6.93794830	     14.20856771	     -3.87687593	      0.44750329	     11.92496041
      4.54000000	     -1.60831229	     -3.48105921	     94.98494228	      0.30456606	      0.88037685	     -0.46486693	     19.14308042	     -6.03504410	     -5.63100193	    -23.83129735	     11.81442799	      0.62835646	     15.73270935	     -7.21795961	      4.87816626	    -58.63345178	      7.44614888	     12.02938123	     -3.99781918	      0.47385033	     12.45328188
      4.55000000	     -1.63119490	     -3.44503010	     94.86911899	      0.30735703	      0.88113433	     -0.46799450	     18.77237315	     -5.78368359	     -5.56957638	    -23.57783894	     11.93113294	      0.41475067	     16.81999458	     -7.70994254	      3.58894565	    -59.25803542	      7.95045509	     10.01778502	     -4.10276426	      0.48636361	     13.00485546
      4.56000000	     -1.65630582	     -3.41358908	     94.70411373	      0.31008101	      0.88192537	     -0.47105433	     18.39108385	     -5.53337312	     -5.48534691	    -23.26895097	     12.01077473	      0.22593588	     17.79796551	     -8.18350237	      2.31977818	    -59.63161623	      8.43010781	      8.22838889	     -4.19014794	      0.49807757	     13.55965450
      4.57000000	     -1.68596151	     -3.39033256	     94.50124846	      0.31269759	      0.88273393	     -0.47403780	     18.00329854	     -5.29413730	     -5.38864506	    -22.90978148	     12.05811686	      0.06829659	     18.66967360	     -8.61446281	      1.10090484	    -59.76034865	      8.87716772	      6.69394018	     -4.25695783	      0.50959892	     14.10994343
      4.58000000	     -1.72687555	     -3.37721300	     94.27477855	      0.31516393	      0.88354693	     -0.47693219	     17.61518562	     -5.08056938	     -5.28602186	    -22.51324070	     12.08235769	     -0.05324902	     19.43908058	     -8.97232103	     -0.03448583	    -59.65151432	      9.28425315	      5.43782471	     -4.30426366	      0.51551693	     14.64121288
      4.59000000	     -1.78175592	     -3.37598330	     94.03760723	      0.31745038	      0.88434454	     -0.47972792	     17.23461495	     -4.90095096	     -5.18630900	    -22.09553065	     12.09464261	     -0.13644778	     20.11385910	     -9.23536541	     -1.05491179	    -59.31441472	      9.64262696	      4.48599294	     -4.33243503	      0.51412211	     15.13929297
      4.60000000	     -1.85226788	     -3.39083712	     93.80321034	      0.31953169	      0.88510735	     -0.48242541	     16.86620392	     -4.76111518	     -5.09293667	    -21.66169397	     12.10571250	     -0.18285437	     20.70443754	     -9.39073587	     -1.93540880	    -58.75851550	      9.94390853	      3.86162219	     -4.33855696	      0.50438630	     15.58863656
      4.61000000	     -1.92101734	     -3.43158847	     93.57772540	      0.32142546	      0.88579042	     -0.48501146	     16.53326909	     -4.64351866	     -5.02102992	    -21.23309205	     12.10340211	     -0.18636765	     21.23623833	     -9.45942832	     -2.65813235	    -58.00908125	     10.21551325	      3.66353886	     -4.31404503	      0.50113418	     15.98669487
      4.62000000	     -2.01549781	     -3.48587683	     93.37894974	      0.32307461	      0.88643532	     -0.48752684	     16.20698133	     -4.58106949	     -4.96230244	    -20.79573662	     12.11049670	     -0.18734524	     21.68844275	     -9.40286487	     -3.20862529	    -57.05793591	     10.43771259	      3.58450345	     -4.26967849	      0.48148856	     16.30915576
      4.63000000	     -2.12253806	     -3.55085675	     93.19502707	      0.32456275	      0.88702368	     -0.48995529	     15.89821199	     -4.54952615	     -4.91423794	    -20.36514209	     12.11877618	     -0.17838057	     22.06773231	     -9.25993216	     -3.60222554	    -55.93139871	     10.63061896	      3.69934280	     -4.21597656	      0.44696927	     16.57055836
      4.64000000	     -2.24512985	     -3.61220436	     93.02382791	      0.32589128	      0.88757867	     -0.49233377	     15.59194874	     -4.54962400	     -4.86653328	    -19.94762380	     12.13830745	     -0.15855651	     22.35571818	     -9.03999869	     -3.84760624	    -54.64137601	     10.79683083	      4.06543306	     -4.16491854	      0.39731729	     16.78547900
